<svg width="486" height="391" viewBox="0 0 486 391" fill="none" xmlns="http://www.w3.org/2000/svg">
<path d="M123.054 280.79V318.875C128.908 317.426 133.284 315.959 136.223 311.571C139.157 308.638 140.629 304.232 140.629 299.832C140.629 295.45 139.157 291.062 136.223 288.129C133.29 285.19 128.908 283.723 123.054 280.79ZM95.2115 238.317C95.2115 242.699 96.6782 245.639 99.6115 248.572C102.551 251.505 105.484 252.978 111.339 254.426V222.196C106.957 223.663 102.551 225.13 99.6115 228.069C96.6722 231.008 95.2115 233.917 95.2115 238.317ZM139.139 158.391C132.016 157.027 124.689 156.282 117.181 156.282C52.739 156.282 0 209.021 0 273.469C0 337.917 52.739 390.674 117.181 390.674C181.647 390.674 234.368 337.917 234.368 273.469C234.368 270.235 234.2 267.031 233.941 263.857C186.582 247.869 150.072 207.794 139.139 158.391ZM161.138 314.487C158.205 320.341 153.799 324.741 147.951 329.141C142.096 332.074 134.763 334.996 125.993 334.996V343.777C125.993 346.717 125.993 349.656 124.52 351.123C124.52 352.571 123.054 354.038 120.12 354.038C118.654 354.038 117.181 354.038 115.714 352.571C114.248 351.123 114.248 349.656 114.248 346.717V334.996C106.951 333.529 101.078 332.08 96.6722 330.614C92.2903 327.68 87.9084 324.741 83.5024 321.808C80.5692 318.875 77.6299 314.487 76.1632 310.105C74.6966 305.705 73.254 302.765 73.254 298.384C71.7813 296.917 73.254 293.984 74.6966 292.529C76.1632 289.596 79.1025 289.596 83.5024 289.596C86.4357 289.596 87.9024 289.596 89.357 291.062C90.8236 292.529 92.2903 293.978 93.7389 295.444C95.2115 299.826 96.6722 304.232 98.1448 305.699C99.6115 308.632 101.078 310.099 104.011 313.02C106.951 314.487 109.866 317.42 112.799 317.42V276.402C105.478 274.935 98.1448 272.02 93.7389 269.081C87.9084 266.148 84.9751 263.208 80.5692 257.36C77.6359 252.978 76.1632 245.639 76.1632 238.317C76.1632 228.063 79.1025 220.724 84.9691 213.427C90.8176 207.548 101.078 203.148 112.799 201.681V192.918C112.799 188.518 114.248 185.578 118.654 185.578C123.054 185.578 124.52 188.512 124.52 192.918V201.681C130.375 201.681 136.223 203.148 140.629 206.081C145.029 207.548 149.411 210.481 152.35 214.875C155.26 217.802 156.732 220.724 158.205 223.657C159.672 226.59 159.672 229.53 159.672 232.463C159.672 235.378 158.205 238.317 156.738 239.766C155.266 241.233 152.356 242.699 149.417 242.699C143.563 242.699 140.635 239.766 137.696 233.911C136.223 226.59 131.842 222.19 124.52 219.269V255.887C131.842 257.354 137.696 260.269 142.096 261.742C146.502 263.208 149.417 266.142 153.799 269.081C156.732 272.014 159.672 276.402 162.605 280.784C164.072 285.184 165.538 289.59 165.538 295.438C165.544 302.766 164.072 308.638 161.138 314.487ZM403.008 217.971C398.716 217.971 394.539 218.404 390.415 219.047C374.553 238.191 353.852 253.176 330.235 262.126C324.218 273.529 320.774 286.482 320.774 300.205C320.774 345.43 357.783 382.457 403.008 382.457C448.246 382.457 485.248 345.436 485.248 300.205C485.242 254.979 448.246 217.971 403.008 217.971ZM433.85 328.985C431.788 333.096 428.704 336.18 424.593 339.275C420.482 341.337 415.336 343.381 409.187 343.381V349.548C409.187 351.61 409.187 353.665 408.153 354.693C408.153 355.709 407.126 356.743 405.064 356.743C404.036 356.743 403.002 356.743 401.968 355.709C400.94 354.693 400.94 353.659 400.94 351.604V343.375C395.819 342.347 391.702 341.331 388.606 340.297C385.529 338.235 382.457 336.174 379.368 334.124C377.306 332.062 375.244 328.985 374.222 325.907C373.188 322.818 372.173 320.762 372.173 317.678C371.139 316.651 372.173 314.589 373.188 313.573C374.222 311.511 376.284 311.511 379.368 311.511C381.429 311.511 382.457 311.511 383.473 312.539C384.507 313.573 385.535 314.589 386.55 315.623C387.584 318.7 388.612 321.784 389.646 322.818C390.674 324.879 391.708 325.907 393.763 327.951C395.831 328.979 397.875 331.04 399.931 331.04V302.255C394.797 301.227 389.646 299.177 386.55 297.121C382.457 295.06 380.401 292.998 377.312 288.899C375.25 285.821 374.222 280.676 374.222 275.536C374.222 268.341 376.284 263.184 380.395 258.063C384.507 253.946 391.702 250.856 399.925 249.828V243.673C399.925 240.583 400.94 238.528 404.036 238.528C407.126 238.528 408.153 240.589 408.153 243.673V249.828C412.265 249.828 416.364 250.856 419.46 252.918C422.549 253.952 425.627 256.007 427.689 259.079C429.732 261.14 430.766 263.19 431.794 265.246C432.828 267.308 432.828 269.369 432.828 271.425C432.828 273.475 431.794 275.536 430.766 276.552C429.732 277.58 427.689 278.614 425.633 278.614C421.521 278.614 419.466 276.552 417.404 272.447C416.37 267.314 413.293 264.224 408.159 262.174V287.871C413.293 288.899 417.404 290.948 420.494 291.976C423.589 293.004 425.633 295.066 428.71 297.121C430.772 299.183 432.834 302.255 434.89 305.332C435.917 308.422 436.951 311.511 436.951 315.623C436.945 320.762 435.911 324.885 433.85 328.985ZM407.126 305.338V332.068C411.231 331.046 414.308 330.019 416.364 326.941C418.426 324.879 419.46 321.79 419.46 318.7C419.46 315.623 418.426 312.545 416.364 310.489C414.308 308.422 411.231 307.4 407.126 305.338ZM387.584 275.542C387.584 278.62 388.612 280.676 390.674 282.737C392.736 284.799 394.797 285.827 398.897 286.843V264.224C395.825 265.252 392.736 266.286 390.674 268.347C388.612 270.409 387.584 272.447 387.584 275.542ZM255.731 89.2428C255.731 94.0094 257.324 97.2011 260.515 100.399C263.707 103.591 266.899 105.19 273.264 106.764V71.7032C268.498 73.3021 263.707 74.8949 260.515 78.0867C257.324 81.2784 255.731 84.4521 255.731 89.2428ZM286.019 135.436V176.863C292.385 175.288 297.151 173.689 300.343 168.922C303.535 165.731 305.134 160.94 305.134 156.149C305.134 151.383 303.535 146.61 300.343 143.418C297.151 140.227 292.379 138.628 286.019 135.436ZM407.095 127.472C407.095 57.3734 349.746 0 279.63 0C209.532 0 152.164 57.3674 152.164 127.472C152.164 197.564 209.532 254.955 279.63 254.955C349.746 254.961 407.095 197.57 407.095 127.472ZM327.434 172.09C324.242 178.456 319.458 183.24 313.086 188.037C306.721 191.223 298.744 194.402 289.205 194.402V203.959C289.205 207.151 289.205 210.343 287.6 211.942C287.6 213.517 286.007 215.11 282.816 215.11C281.217 215.11 279.624 215.11 278.025 213.511C276.426 211.936 276.426 210.337 276.426 207.145V194.396C268.486 192.797 262.096 191.217 257.306 189.624C252.539 186.432 247.772 183.24 242.982 180.048C239.784 176.857 236.598 172.084 234.993 167.317C233.401 162.533 231.826 159.335 231.826 154.562C230.227 152.97 231.826 149.778 233.401 148.203C234.993 145.011 238.191 145.011 242.982 145.011C246.174 145.011 247.772 145.011 249.347 146.604C250.946 148.203 252.539 149.778 254.114 151.377C255.719 156.143 257.306 160.928 258.904 162.527C260.503 165.719 262.096 167.311 265.288 170.485C268.48 172.084 271.659 175.276 274.851 175.276V130.663C266.887 129.065 258.904 125.897 254.114 122.699C247.772 119.507 244.581 116.316 239.79 109.95C236.598 105.184 234.999 97.1951 234.999 89.2368C234.999 78.0867 238.197 70.0983 244.581 62.158C250.946 55.7745 262.096 50.9899 274.851 49.385V39.8458C274.851 35.0612 276.426 31.8634 281.217 31.8634C286.007 31.8634 287.6 35.0552 287.6 39.8458V49.385C293.972 49.385 300.331 50.9839 305.122 54.1696C309.912 55.7685 314.679 58.9602 317.877 63.7328C321.044 66.9246 322.643 70.0983 324.236 73.29C325.841 76.4818 325.841 79.6735 325.841 82.8653C325.841 86.039 324.236 89.2308 322.649 90.8116C321.05 92.4045 317.883 93.9973 314.685 93.9973C308.32 93.9973 305.128 90.8116 301.936 84.4461C300.337 76.4818 295.571 71.6912 287.606 68.5235V108.351C295.571 109.944 301.936 113.118 306.727 114.717C311.517 116.316 314.685 119.507 319.458 122.699C322.649 125.891 325.841 130.663 329.039 135.43C330.632 140.215 332.231 145.011 332.231 151.377C332.231 159.341 330.632 165.725 327.434 172.09Z" fill="#17B9BB"/>
</svg>
